<svg viewBox="0,0,900,300" width="900" height="300" style="max-width: 100%; height: auto; display: block;" xmlns="http://www.w3.org/2000/svg" xmlns:xlink="http://www.w3.org/1999/xlink"><rect width="900" height="300" fill="#FFF"/><g transform="translate(0, 150)" fill="#0CAFFF"><rect height="117.48484880061345" width="12.48" x="50" y="-58.742424400306724" rx="8" ry="8"/><rect height="133.62313217168762" width="12.48" x="66.3265306122449" y="-66.81156608584381" rx="8" ry="8"/><rect height="132.18980806044226" width="12.48" x="82.65306122448979" y="-66.09490403022113" rx="8" ry="8"/><rect height="143.18381305184673" width="12.48" x="98.9795918367347" y="-71.59190652592336" rx="8" ry="8"/><rect height="140.35667924999495" width="12.48" x="115.3061224489796" y="-70.17833962499748" rx="8" ry="8"/><rect height="156.85593702570995" width="12.48" x="131.6326530612245" y="-78.42796851285497" rx="8" ry="8"/><rect height="167.45806342993328" width="12.48" x="147.9591836734694" y="-83.72903171496664" rx="8" ry="8"/><rect height="194.88959578489656" width="12.48" x="164.28571428571428" y="-97.44479789244828" rx="8" ry="8"/><rect height="196.660728510215" width="12.48" x="180.6122448979592" y="-98.3303642551075" rx="8" ry="8"/><rect height="164.43611823627685" width="12.48" x="196.9387755102041" y="-82.21805911813843" rx="8" ry="8"/><rect height="242.40408323392194" width="12.48" x="213.26530612244898" y="-121.20204161696097" rx="8" ry="8"/><rect height="243.94947520063272" width="12.48" x="229.59183673469389" y="-121.97473760031636" rx="8" ry="8"/><rect height="231.0541655975658" width="12.48" x="245.91836734693877" y="-115.5270827987829" rx="8" ry="8"/><rect height="183.22908830331517" width="12.48" x="262.2448979591837" y="-91.61454415165758" rx="8" ry="8"/><rect height="225.962871766754" width="12.48" x="278.57142857142856" y="-112.981435883377" rx="8" ry="8"/><rect height="153.02667817200492" width="12.48" x="294.8979591836735" y="-76.51333908600246" rx="8" ry="8"/><rect height="146.83655663072824" width="12.48" x="311.2244897959184" y="-73.41827831536412" rx="8" ry="8"/><rect height="154.93111579592113" width="12.48" x="327.5510204081633" y="-77.46555789796057" rx="8" ry="8"/><rect height="205.78899287648784" width="12.48" x="343.8775510204082" y="-102.89449643824392" rx="8" ry="8"/><rect height="220.5723927483337" width="12.48" x="360.204081632653" y="-110.28619637416685" rx="8" ry="8"/><rect height="194.44794089505723" width="12.48" x="376.53061224489795" y="-97.22397044752861" rx="8" ry="8"/><rect height="203.8111193843394" width="12.48" x="392.85714285714283" y="-101.9055596921697" rx="8" ry="8"/><rect height="234.90495392631772" width="12.48" x="409.18367346938777" y="-117.45247696315886" rx="8" ry="8"/><rect height="238.28771124206975" width="12.48" x="425.51020408163265" y="-119.14385562103487" rx="8" ry="8"/><rect height="246.15420324330407" width="12.48" x="441.83673469387753" y="-123.07710162165203" rx="8" ry="8"/><rect height="250" width="12.48" x="458.16326530612247" y="-125" rx="8" ry="8"/><rect height="248.2518033121614" width="12.48" x="474.4897959183674" y="-124.1259016560807" rx="8" ry="8"/><rect height="185.97921692732422" width="12.48" x="490.81632653061223" y="-92.98960846366211" rx="8" ry="8"/><rect height="97.66164204475776" width="12.48" x="507.1428571428571" y="-48.83082102237888" rx="8" ry="8"/><rect height="137.0033796547151" width="12.48" x="523.469387755102" y="-68.50168982735755" rx="8" ry="8"/><rect height="153.25817157615853" width="12.48" x="539.795918367347" y="-76.62908578807927" rx="8" ry="8"/><rect height="184.67089558570868" width="12.48" x="556.1224489795919" y="-92.33544779285434" rx="8" ry="8"/><rect height="212.64367770917306" width="12.48" x="572.4489795918367" y="-106.32183885458653" rx="8" ry="8"/><rect height="240.97194992183148" width="12.48" x="588.7755102040817" y="-120.48597496091574" rx="8" ry="8"/><rect height="221.22599747432176" width="12.48" x="605.1020408163266" y="-110.61299873716088" rx="8" ry="8"/><rect height="174.89327109846593" width="12.48" x="621.4285714285714" y="-87.44663554923297" rx="8" ry="8"/><rect height="132.40591234919086" width="12.48" x="637.7551020408164" y="-66.20295617459543" rx="8" ry="8"/><rect height="137.82300544741057" width="12.48" x="654.0816326530612" y="-68.91150272370528" rx="8" ry="8"/><rect height="198.09355447296736" width="12.48" x="670.408163265306" y="-99.04677723648368" rx="8" ry="8"/><rect height="241.61048274702873" width="12.48" x="686.734693877551" y="-120.80524137351436" rx="8" ry="8"/><rect height="231.32073719556837" width="12.48" x="703.0612244897959" y="-115.66036859778418" rx="8" ry="8"/><rect height="244.6074862657553" width="12.48" x="719.3877551020408" y="-122.30374313287766" rx="8" ry="8"/><rect height="238.45630125006335" width="12.48" x="735.7142857142857" y="-119.22815062503167" rx="8" ry="8"/><rect height="239.60686567296355" width="12.48" x="752.0408163265306" y="-119.80343283648178" rx="8" ry="8"/><rect height="234.88231147023853" width="12.48" x="768.3673469387755" y="-117.44115573511927" rx="8" ry="8"/><rect height="94.59853843720165" width="12.48" x="784.6938775510204" y="-47.29926921860083" rx="8" ry="8"/><rect height="111.66716610277365" width="12.48" x="801.0204081632653" y="-55.833583051386825" rx="8" ry="8"/><rect height="108.8320269803018" width="12.48" x="817.3469387755101" y="-54.4160134901509" rx="8" ry="8"/><rect height="110.64966667506604" width="12.48" x="833.6734693877551" y="-55.32483333753302" rx="8" ry="8"/><rect height="50" width="12.48" x="850" y="-25" rx="8" ry="8"/></g></svg>